<svg width="570" height="192" viewBox="0 0 570 192" fill="none" xmlns="http://www.w3.org/2000/svg">
<path d="M78.0823 1.43663C81.8553 -0.449855 86.2862 -0.478438 90.0791 1.35089L90.2537 1.43663L157.454 35.0366C162.015 37.3172 164.914 41.9537 164.975 47.0437L164.976 47.208V80.808C164.976 85.9075 162.125 90.574 157.6 92.905L157.454 92.9794L104.254 119.579C95.3056 124.053 84.7729 117.562 84.7478 107.557C84.735 102.464 87.594 97.7986 92.1377 95.4979L130.296 76.1767C134.874 73.8587 137.76 69.1632 137.76 64.0317C137.76 58.8755 134.847 54.1618 130.235 51.8558L98.7486 36.1125C89.5414 31.5088 78.732 31.3797 69.4175 35.7622L46.5114 46.5396C34.7337 52.081 27.216 63.9263 27.216 76.9425V178.416C12.185 178.416 0 166.231 0 151.2V47.208C0 42.1085 2.85051 37.442 7.37576 35.111L7.52232 35.0366L78.0823 1.43663Z" fill="#FFBB5C"/>
<path d="M78.7586 51.3683C82.7483 49.1398 87.5838 49.0366 91.665 51.0928C101.513 56.0544 101.821 70.0033 92.2014 75.3947L78.76 82.9279C71.8286 86.8126 67.5363 94.1385 67.5363 102.084V106.529C67.5363 128.787 91.2132 143.053 110.891 132.652L161.765 105.761L161.537 116.807C161.287 128.965 154.487 140.039 143.756 145.762L60.3321 190.255C51.3583 195.041 40.5391 188.651 40.3236 178.555L40.3203 178.248V80.8081C40.3203 75.7086 43.1708 71.0421 47.6961 68.7111L47.8426 68.6367L78.7586 51.3683Z" fill="#FFBB5C"/>
<mask id="mask0" mask-type="alpha" maskUnits="userSpaceOnUse" x="40" y="49" width="122" height="144">
<path d="M78.4383 51.5636C82.428 49.3352 87.2635 49.2319 91.3447 51.2881C101.193 56.2497 101.501 70.1987 91.8811 75.59L78.4397 83.1232C71.5082 87.0079 67.216 94.3338 67.216 102.28V106.725C67.216 128.982 90.8929 143.248 110.57 132.847L161.444 105.956L161.217 117.002C160.967 129.16 154.166 140.235 143.436 145.958L60.0118 190.45C51.038 195.236 40.2188 188.847 40.0033 178.75L40 178.443V81.0034C40 75.9039 42.8505 71.2374 47.3758 68.9064L47.5223 68.832L78.4383 51.5636Z" fill="white"/>
</mask>
<g mask="url(#mask0)">
</g>
<path fill-rule="evenodd" clip-rule="evenodd" d="M424.141 100.845C432.819 100.845 439.961 98.1567 445.568 92.7807C451.174 87.3279 453.939 80.1855 453.939 71.2767C453.939 62.3679 451.174 55.2255 445.568 49.8495C439.961 44.3967 432.819 41.7087 424.141 41.7087C415.385 41.7087 408.243 44.3967 402.637 49.8495C397.03 55.2255 394.265 62.3679 394.265 71.2767C394.265 80.1855 397.03 87.3279 402.637 92.7807C408.243 98.1567 415.385 100.845 424.141 100.845ZM217.664 99.9999V79.5711H230.643C236.249 79.5711 240.704 77.9583 244.083 74.6559C247.462 71.3535 249.152 66.8223 249.152 61.0623C249.152 55.3023 247.462 50.7711 244.083 47.4687C240.704 44.1663 236.249 42.5535 230.643 42.5535H205.76V99.9999H217.664ZM229.107 69.0495H217.587V52.9983H229.107C233.792 52.9983 237.094 55.9167 237.094 61.0623C237.094 66.2079 233.792 69.0495 229.107 69.0495ZM292.726 89.4783V99.9999H255.785V42.5535H267.689V89.4783H292.726ZM336.915 99.9999V89.4783H311.878V75.6543H333.536V65.4399H311.878V52.9983H336.838V42.5535H299.974V99.9999H336.915ZM371.965 52.9983V99.9999H360.137V52.9983H340.861V42.5535H391.165V52.9983H371.965ZM411.238 85.1775C414.541 88.6335 418.841 90.3231 424.141 90.3231C429.44 90.3231 433.664 88.6335 436.889 85.1775C440.192 81.7215 441.805 77.1135 441.805 71.2767C441.805 65.3631 440.192 60.7551 436.889 57.3759C433.664 53.9199 429.44 52.2303 424.141 52.2303C418.841 52.2303 414.541 53.9199 411.238 57.3759C407.936 60.7551 406.323 65.3631 406.323 71.2767C406.323 77.1135 407.936 81.7215 411.238 85.1775ZM474.166 99.9999V79.3407H483.766L494.979 99.9999H508.342L496.131 77.4207C501.968 74.5791 505.347 68.8959 505.347 60.9855C505.347 55.2255 503.657 50.6943 500.278 47.4687C496.899 44.1663 492.445 42.5535 486.838 42.5535H462.262V99.9999H474.166ZM474.089 68.8191H485.379C490.064 68.8191 493.289 65.9007 493.289 60.9855C493.289 55.8399 490.064 52.9983 485.379 52.9983H474.089V68.8191ZM523.193 99.9999L527.955 88.9407H551.84L556.525 99.9999H569.581L544.851 42.5535H534.867L510.214 99.9999H523.193ZM539.936 60.9087L532.179 79.2639H547.693L539.936 60.9087Z" fill="#FFBB5C"/>
<path fill-rule="evenodd" clip-rule="evenodd" d="M218.361 173.022C225.964 173.022 231.839 168.659 233.049 161.488L228.945 161.142C227.951 166.499 223.761 169.48 218.231 169.48C211.578 169.48 206.438 164.901 206.438 156.434C206.438 148.226 211.276 143.387 218.145 143.387C223.761 143.387 228.081 146.584 228.902 152.2L233.006 151.811C232.012 144.381 225.878 139.845 218.274 139.845C209.159 139.845 202.42 145.936 202.42 156.434C202.42 166.931 209.289 173.022 218.361 173.022ZM252.937 173.022C262.095 173.022 269.18 166.715 269.18 156.434C269.18 146.152 262.095 139.845 252.937 139.845C243.735 139.845 236.651 146.152 236.651 156.434C236.651 166.715 243.735 173.022 252.937 173.022ZM240.668 156.434C240.668 164.642 246.025 169.48 252.937 169.48C259.849 169.48 265.163 164.642 265.163 156.434C265.163 148.182 259.849 143.387 252.937 143.387C246.025 143.387 240.668 148.182 240.668 156.434ZM278.83 172.59V147.621L296.11 172.59H299.48V140.277H295.548V165.29L278.182 140.277H274.856V172.59H278.83ZM328.872 163.691C328.872 170.171 323.688 173.022 317.381 173.022C310.598 173.022 305.414 169.653 305.112 163.605L309.086 163.389C309.389 167.19 312.888 169.566 317.381 169.566C321.657 169.566 324.854 167.925 324.854 163.994C324.854 160.149 321.657 159.285 316.301 157.989C310.512 156.606 305.846 155.138 305.846 149.003C305.846 144.078 309.432 139.845 316.776 139.845C323.126 139.845 327.662 143.128 327.921 148.83L323.904 149.09C323.688 145.461 320.923 143.301 316.862 143.301C312.24 143.301 309.864 145.72 309.864 148.874C309.864 152.718 312.888 153.539 317.726 154.619C324.681 156.261 328.872 158.032 328.872 163.691ZM347.075 172.59V143.776H359.085V140.277H331.091V143.776H343.101V172.59H347.075ZM367.007 159.63V172.59H363.032V140.277H375.517C381.09 140.277 385.453 143.517 385.453 149.954C385.453 154.706 383.077 157.73 379.535 158.982L387.138 172.59H382.688L375.431 159.63H367.007ZM375.042 156.131H366.963V143.776H375.042C378.455 143.776 381.392 145.72 381.392 149.954C381.392 154.187 378.455 156.131 375.042 156.131ZM417.48 160.451C417.48 168.573 412.426 173.022 404.607 173.022C396.744 173.022 391.733 168.573 391.733 160.451V140.277H395.664V160.408C395.664 166.413 399.034 169.48 404.607 169.48C410.093 169.48 413.549 166.413 413.549 160.408V140.277H417.48V160.451ZM438.794 173.022C446.397 173.022 452.273 168.659 453.482 161.488L449.378 161.142C448.385 166.499 444.194 169.48 438.665 169.48C432.012 169.48 426.871 164.901 426.871 156.434C426.871 148.226 431.709 143.387 438.578 143.387C444.194 143.387 448.514 146.584 449.335 152.2L453.439 151.811C452.445 144.381 446.311 139.845 438.708 139.845C429.593 139.845 422.853 145.936 422.853 156.434C422.853 166.931 429.722 173.022 438.794 173.022ZM471.383 143.776V172.59H467.409V143.776H455.399V140.277H483.393V143.776H471.383ZM491.315 140.277H487.34V172.59H491.315V140.277ZM529.433 156.434C529.433 166.715 522.348 173.022 513.19 173.022C503.988 173.022 496.904 166.715 496.904 156.434C496.904 146.152 503.988 139.845 513.19 139.845C522.348 139.845 529.433 146.152 529.433 156.434ZM513.19 169.48C506.278 169.48 500.921 164.642 500.921 156.434C500.921 148.182 506.278 143.387 513.19 143.387C520.102 143.387 525.416 148.182 525.416 156.434C525.416 164.642 520.102 169.48 513.19 169.48ZM539.083 147.621V172.59H535.109V140.277H538.435L555.801 165.29V140.277H559.733V172.59H556.363L539.083 147.621Z" fill="#FFBB5C"/>
</svg>
